<?xml version="1.0" standalone="no"?>
<!DOCTYPE svg PUBLIC "-//W3C//DTD SVG 20010904//EN"
 "http://www.w3.org/TR/2001/REC-SVG-20010904/DTD/svg10.dtd">
<svg version="1.0" xmlns="http://www.w3.org/2000/svg"
 width="512.000000pt" height="512.000000pt" viewBox="0 0 1024.000000 1024.000000"
 preserveAspectRatio="xMidYMid meet">
<metadata>
Created by potrace 1.16, written by Peter Selinger 2001-2019
</metadata>
<defs>
  <linearGradient id="grad1" x1="0%" y1="0%" x2="100%" y2="100%">
    <stop offset="0%" style="stop-color:#FF6B6B;stop-opacity:1" />
    <stop offset="100%" style="stop-color:#FF8E53;stop-opacity:1" />
  </linearGradient>
</defs>
<g transform="translate(0.000000,1024.000000) scale(0.100000,-0.100000)"
stroke="none">
<path fill="url(#grad1)" d="M4865 9328 c-61 -10 -151 -38 -195 -63 -14 -7 -41 -22 -60 -31 -46
-24 -183 -160 -201 -201 -8 -18 -17 -33 -20 -33 -4 0 -14 -17 -24 -37 -9 -21
-29 -60 -44 -88 -15 -27 -54 -99 -86 -160 -32 -60 -76 -141 -97 -180 -21 -38
-54 -101 -74 -140 -20 -38 -48 -92 -63 -120 -68 -125 -149 -278 -195 -370 -28
-55 -54 -102 -57 -105 -4 -3 -15 -23 -26 -45 -11 -22 -48 -94 -83 -160 -34
-66 -90 -172 -123 -235 -115 -222 -297 -575 -308 -600 -6 -14 -15 -32 -20 -40
-11 -18 -82 -157 -248 -483 -166 -327 -1081 -2156 -1161 -2322 -116 -241 -139
-289 -209 -435 -85 -180 -184 -391 -232 -495 -41 -90 -101 -223 -121 -265 -11
-25 -29 -63 -38 -85 -21 -47 -45 -99 -98 -215 -114 -250 -142 -346 -142 -486
1 -92 23 -233 43 -274 10 -18 17 -40 17 -48 0 -20 64 -127 115 -192 32 -41
168 -171 190 -181 11 -5 40 -23 65 -39 25 -16 52 -32 60 -35 8 -4 33 -15 55
-25 75 -34 170 -59 273 -71 146 -16 293 1 617 72 50 10 101 19 114 19 13 0 60
9 105 19 44 11 128 30 186 42 259 53 299 61 367 80 40 10 81 19 90 19 10 0 50
8 88 19 39 10 113 28 165 40 107 25 229 54 340 81 105 26 169 41 215 52 102
24 195 48 250 63 33 9 80 20 105 25 25 5 65 16 89 24 24 9 53 16 64 16 11 0
50 9 86 19 63 19 125 36 299 81 42 12 105 30 139 40 34 11 70 20 79 20 10 0
45 9 78 19 34 10 97 29 141 41 196 54 314 87 423 119 37 10 103 29 147 41 44
13 107 30 140 40 33 10 96 28 140 40 44 12 107 30 140 40 64 19 152 45 275 81
80 23 171 51 260 79 30 9 91 27 135 40 44 12 102 31 129 41 27 11 55 19 64 19
8 0 44 10 81 21 107 35 171 55 251 79 41 13 93 30 115 38 22 8 56 18 75 22 19
4 58 16 85 25 92 33 150 52 225 75 41 12 93 29 115 37 22 8 60 21 85 28 25 7
61 18 80 25 19 7 58 21 85 30 28 9 73 25 100 35 28 9 64 21 80 25 17 5 68 22
115 40 47 17 99 35 115 39 78 21 245 98 245 113 0 4 6 8 13 8 14 0 132 116
150 148 77 133 107 232 107 351 0 78 -32 231 -56 265 -8 11 -14 26 -14 33 0
11 -59 118 -115 211 -6 9 -23 40 -38 67 -15 28 -39 68 -52 90 -14 22 -42 69
-62 103 -21 35 -45 76 -54 90 -9 15 -33 54 -52 87 -20 33 -41 65 -46 71 -5 6
-17 26 -26 45 -10 19 -21 36 -24 39 -3 3 -17 25 -30 50 -13 25 -30 52 -36 60
-7 8 -20 29 -29 45 -9 17 -28 48 -41 70 -14 22 -29 49 -34 60 -5 12 -16 27
-25 34 -9 7 -16 17 -16 22 0 9 -90 153 -110 176 -5 7 -10 15 -10 18 0 3 -8 18
-19 33 -10 15 -37 56 -59 92 -22 36 -50 79 -62 95 -11 17 -38 57 -59 90 -62
98 -424 641 -503 756 -40 58 -93 135 -117 170 -25 35 -47 66 -51 69 -4 3 -10
12 -13 20 -4 8 -27 42 -52 75 -24 33 -63 87 -86 120 -23 33 -46 62 -51 63 -4
2 -8 8 -8 12 0 11 -100 144 -111 148 -5 2 -9 8 -9 13 0 5 -17 32 -37 59 -21
27 -67 88 -103 136 -36 47 -73 95 -82 105 -10 11 -18 23 -18 29 0 5 -6 13 -13
17 -7 4 -35 37 -62 73 -79 105 -216 274 -231 286 -8 6 -14 16 -14 22 0 6 -6
15 -14 19 -8 4 -46 49 -86 98 -40 50 -79 98 -88 107 -10 9 -22 24 -29 32 -156
188 -210 252 -238 280 -11 12 -53 60 -93 107 -63 76 -104 123 -155 179 -13 15
-182 211 -227 264 -14 17 -34 39 -45 50 -12 12 -67 75 -124 141 -57 66 -111
127 -120 135 -9 8 -28 30 -43 48 -43 52 -127 115 -198 149 -79 37 -115 49
-201 62 -75 12 -108 12 -194 -1z m-408 -2026 c34 -23 81 -53 108 -68 11 -6 36
-20 55 -32 19 -12 49 -29 65 -38 17 -9 32 -20 35 -23 3 -4 28 -21 55 -39 28
-17 55 -35 60 -39 13 -11 122 -85 144 -98 9 -5 18 -13 21 -16 3 -3 28 -20 55
-39 28 -18 57 -40 67 -49 9 -9 31 -27 49 -41 35 -26 163 -133 214 -178 16 -15
77 -68 135 -117 233 -200 584 -553 760 -765 34 -41 65 -77 69 -80 4 -3 37 -43
75 -90 37 -47 75 -94 84 -105 93 -112 378 -505 412 -567 11 -21 25 -38 30 -38
6 0 10 -5 10 -11 0 -6 27 -51 60 -100 33 -49 60 -93 60 -98 0 -5 7 -15 16 -22
9 -7 20 -22 25 -34 5 -11 20 -38 34 -60 14 -22 32 -53 41 -70 8 -16 28 -52 44
-80 16 -27 36 -63 44 -80 9 -16 43 -79 76 -140 91 -168 198 -389 259 -535 13
-30 32 -76 44 -102 28 -66 20 -125 -26 -181 -34 -42 -41 -45 -243 -111 -115
-38 -223 -75 -241 -82 -17 -8 -39 -14 -48 -14 -9 0 -37 -8 -63 -19 -41 -16
-316 -106 -499 -162 -35 -11 -93 -29 -130 -41 -38 -11 -93 -28 -123 -38 -30
-9 -86 -26 -125 -38 -38 -11 -101 -29 -140 -41 -133 -39 -210 -61 -275 -81
-36 -11 -99 -29 -140 -41 -41 -12 -102 -30 -135 -39 -33 -10 -96 -28 -140 -40
-44 -12 -107 -30 -140 -40 -33 -10 -96 -28 -140 -40 -44 -12 -109 -30 -145
-40 -117 -33 -213 -59 -300 -80 -47 -12 -115 -30 -151 -41 -36 -10 -72 -19
-79 -19 -8 0 -44 -9 -80 -19 -60 -18 -107 -30 -310 -81 -41 -10 -112 -28 -157
-39 -46 -12 -120 -30 -165 -41 -89 -23 -194 -49 -298 -75 -36 -9 -83 -20 -105
-24 -44 -9 -143 -33 -252 -62 -39 -10 -80 -19 -90 -19 -10 0 -49 -8 -88 -19
-38 -10 -115 -29 -170 -41 -55 -12 -136 -30 -180 -40 -138 -31 -266 -59 -370
-79 -55 -11 -135 -27 -178 -35 -113 -23 -197 -21 -242 5 -39 23 -85 87 -85
116 0 43 67 212 165 418 13 28 42 91 65 140 23 50 50 108 60 130 28 61 84 183
115 250 15 33 72 152 127 265 91 188 150 311 198 415 10 22 37 77 59 122 23
46 41 89 41 97 0 7 6 19 14 25 8 7 17 24 21 38 3 15 15 39 26 54 10 15 19 32
19 39 0 6 9 23 20 37 11 14 20 34 20 44 0 9 4 19 8 21 10 4 72 124 72 139 0 6
7 17 15 25 8 9 18 27 22 42 3 15 12 33 20 40 7 7 16 25 20 40 3 15 13 33 20
41 8 7 17 26 20 42 3 16 12 34 19 40 8 6 14 16 14 21 0 13 532 1079 554 1110
9 12 16 30 16 40 0 10 4 18 8 18 4 0 25 35 46 78 21 42 50 98 65 125 25 46
122 235 392 767 74 146 137 267 141 270 4 3 14 21 23 40 9 19 29 58 44 85 15
28 54 100 86 160 32 61 63 119 69 130 12 21 50 56 75 67 27 13 118 1 148 -20z"/>
<path fill="#FF8E53" d="M4465 5804 c-58 -6 -145 -26 -151 -36 -3 -4 -12 -8 -20 -8 -15 0
-125 -48 -134 -59 -3 -4 -25 -19 -50 -35 -73 -47 -191 -172 -237 -251 -31 -53
-73 -147 -94 -210 -21 -62 -23 -87 -23 -230 0 -127 4 -169 18 -205 10 -25 21
-58 26 -75 32 -117 153 -287 272 -381 161 -127 379 -185 598 -158 58 7 130 21
160 32 166 61 306 167 411 312 46 63 119 213 119 244 0 8 7 41 15 73 9 32 15
101 15 158 0 57 -6 126 -15 158 -8 32 -15 65 -15 73 0 28 -99 234 -112 234 -5
0 -8 6 -8 14 0 14 -119 140 -175 186 -43 36 -113 80 -125 80 -6 0 -21 6 -33
14 -59 38 -165 64 -284 69 -65 3 -136 3 -158 1z"/>
<path fill="#FF6B6B" d="M3405 3560 c-55 -9 -129 -39 -162 -67 -12 -10 -35 -29 -52 -43 -17
-14 -31 -30 -31 -37 0 -7 -4 -13 -9 -13 -4 0 -23 -30 -42 -67 -32 -66 -33 -72
-33 -183 1 -105 3 -120 29 -174 29 -61 133 -176 160 -176 8 0 15 -4 15 -9 0
-11 38 -26 116 -46 78 -19 102 -19 183 1 163 41 268 140 312 293 23 80 24 125
3 203 -22 88 -57 148 -122 210 -96 92 -226 130 -367 108z"/>
<path fill="#FF8E53" d="M8265 8211 c-44 -15 -96 -37 -115 -48 -91 -53 -110 -66 -110 -74 0
-5 -5 -9 -11 -9 -11 0 -41 -29 -99 -96 -63 -72 -110 -156 -145 -259 -43 -124
-43 -391 -1 -476 9 -17 16 -38 16 -45 0 -39 102 -193 177 -265 119 -116 205
-161 398 -211 56 -14 229 -4 300 17 85 25 212 91 269 139 127 105 235 287 257
429 38 243 6 408 -113 593 -67 104 -204 222 -318 272 -108 48 -176 62 -303 62
-107 -1 -132 -4 -202 -29z"/>
</g>
</svg> 